<?xml version="1.0" encoding="UTF-8"?>
<svg xmlns="http://www.w3.org/2000/svg" xmlns:xlink="http://www.w3.org/1999/xlink" width="200px" height="200px" viewBox="0 0 200 200" version="1.1">
<g id="surface1">
<path style=" stroke:none;fill-rule:nonzero;fill:rgb(0%,0%,0%);fill-opacity:1;" d="M 136.667969 17.292969 C 131.1875 17.832031 126.46875 19.90625 122.46875 23.5 C 119.105469 26.53125 116.5 30.8125 115.363281 35.167969 C 114.644531 37.917969 114.667969 37.574219 114.582031 47.65625 C 114.5 57.644531 114.5 57.738281 113.863281 60.25 C 113.28125 62.550781 112.199219 64.957031 110.855469 66.96875 C 110.238281 67.886719 107.519531 71.261719 97.042969 84.113281 C 95.488281 86 90.625 91.980469 86.207031 97.394531 C 65.136719 123.25 49.832031 142.03125 48.230469 144.011719 C 45.644531 147.199219 27.394531 169.613281 23.136719 174.84375 C 20.980469 177.480469 19.136719 179.800781 19.03125 180 C 18.738281 180.5625 18.824219 181.449219 19.238281 181.949219 C 19.40625 182.167969 19.707031 182.4375 19.894531 182.550781 C 20.5625 182.9375 21.019531 182.84375 24.6875 181.644531 C 28.050781 180.542969 29.488281 180.082031 40.050781 176.667969 C 43.09375 175.6875 47.144531 174.375 49.074219 173.75 L 52.5625 172.613281 L 53.613281 171.542969 C 54.1875 170.949219 55.800781 169.25 57.1875 167.761719 C 58.582031 166.269531 60.417969 164.324219 61.25 163.4375 C 63.28125 161.28125 69.042969 155.15625 71.550781 152.46875 L 73.582031 150.3125 L 94.394531 150.3125 C 105.84375 150.3125 115.207031 150.34375 115.207031 150.375 C 115.207031 150.40625 113.230469 153 110.800781 156.125 C 108.386719 159.261719 106.34375 161.957031 106.269531 162.113281 C 106.207031 162.269531 106.144531 162.5625 106.144531 162.75 C 106.144531 163.699219 106.011719 163.53125 111.125 168.667969 C 114.238281 171.792969 115.949219 173.574219 115.886719 173.636719 C 115.824219 173.699219 114.84375 174.238281 113.699219 174.84375 C 111.074219 176.25 110.886719 176.363281 110.625 176.875 C 110.207031 177.6875 110.449219 178.875 111.113281 179.355469 C 111.5625 179.667969 112.144531 179.8125 112.59375 179.738281 C 112.8125 179.707031 114.46875 178.886719 116.292969 177.925781 L 119.59375 176.175781 L 122.113281 176.792969 C 135.699219 180.0625 134.980469 179.917969 135.75 179.519531 C 136.15625 179.3125 136.636719 178.613281 136.71875 178.136719 C 136.84375 177.355469 136.40625 176.449219 135.730469 176.09375 C 135.574219 176.011719 132.03125 175.125 127.855469 174.125 L 120.28125 172.300781 L 115.5 167.53125 C 112.875 164.90625 110.730469 162.738281 110.730469 162.707031 C 110.730469 162.675781 112 161.011719 113.550781 159.011719 C 115.105469 157 117.25 154.230469 118.3125 152.84375 L 120.261719 150.324219 L 122.863281 150.3125 C 128.175781 150.3125 131.46875 149.707031 135.9375 147.949219 C 136.886719 147.574219 138.300781 147.011719 139.09375 146.699219 C 146.21875 143.886719 153.550781 139.261719 158.988281 134.144531 C 169.050781 124.675781 173.949219 113.167969 173.53125 99.949219 C 173.292969 92.25 172.8125 89.238281 171.175781 85.15625 C 169.363281 80.613281 166.800781 76.675781 162.582031 71.957031 C 160.824219 69.988281 160.386719 69.4375 159.457031 68.019531 C 157.699219 65.332031 156.355469 61.65625 156.082031 58.78125 L 156.011719 58.042969 L 156.3125 57.980469 C 156.480469 57.949219 161.792969 57.09375 168.125 56.105469 C 174.457031 55.105469 179.730469 54.25 179.84375 54.207031 C 180.574219 53.949219 181.136719 53.136719 181.144531 52.355469 C 181.144531 51.84375 180.800781 51.105469 180.4375 50.84375 C 180.28125 50.738281 176.3125 48.4375 171.613281 45.730469 C 166.917969 43.019531 163.042969 40.78125 162.988281 40.738281 C 162.949219 40.699219 162.863281 40.125 162.8125 39.46875 C 161.8125 28.074219 153.324219 19.0625 142.03125 17.4375 C 140.730469 17.25 137.832031 17.175781 136.667969 17.292969 Z M 142.1875 21.449219 C 151.136719 23.03125 157.9375 30.34375 158.855469 39.363281 C 158.90625 39.957031 158.957031 40.792969 158.957031 41.21875 C 158.957031 42.15625 159.105469 42.699219 159.46875 43.113281 C 159.625 43.300781 161.949219 44.699219 165.105469 46.519531 C 168.050781 48.21875 171.09375 49.957031 171.855469 50.394531 C 173.144531 51.144531 173.417969 51.355469 173.105469 51.355469 C 173.03125 51.355469 168.542969 52.050781 163.144531 52.90625 C 152.292969 54.625 152.824219 54.5 152.28125 55.386719 C 152.050781 55.75 152.03125 55.875 152.042969 57.136719 C 152.09375 61.832031 153.863281 67.019531 156.855469 71.199219 C 157.644531 72.300781 158.15625 72.917969 159.425781 74.324219 C 163.613281 78.917969 166.3125 83.136719 167.84375 87.449219 C 168.824219 90.207031 169.1875 92.136719 169.375 95.4375 C 169.4375 96.488281 169.53125 97.90625 169.582031 98.59375 C 169.917969 102.832031 169.394531 108.019531 168.207031 112.238281 C 165.761719 120.949219 160.332031 128.550781 152.050781 134.863281 C 151.261719 135.46875 150.59375 135.9375 150.574219 135.917969 C 150.542969 135.894531 150.769531 135.480469 151.050781 135 C 153.167969 131.488281 154.53125 127.800781 155.199219 123.855469 C 155.855469 119.957031 155.738281 115.636719 154.894531 111.71875 C 153.3125 104.449219 148.949219 97.71875 142.875 93.1875 C 141.21875 91.957031 139.886719 91.144531 137.863281 90.15625 C 134.625 88.5625 131.8125 87.699219 127.917969 87.113281 C 126.84375 86.957031 125.261719 86.9375 113.3125 86.886719 L 99.90625 86.824219 L 106.574219 78.644531 C 110.34375 74.011719 113.613281 69.90625 114.105469 69.167969 C 116.269531 65.949219 117.574219 62.613281 118.199219 58.699219 C 118.34375 57.824219 118.375 56.175781 118.4375 48.542969 C 118.5 39.863281 118.519531 39.363281 118.730469 38.175781 C 120.207031 29.863281 126.113281 23.574219 134.21875 21.65625 C 136.550781 21.105469 139.792969 21.019531 142.1875 21.449219 Z M 126.5625 90.9375 C 130.050781 91.300781 133.082031 92.167969 136.199219 93.699219 C 142.792969 96.9375 147.917969 102.78125 150.261719 109.738281 C 151.25 112.675781 151.675781 115.386719 151.675781 118.625 C 151.667969 122.019531 151.1875 124.824219 150.09375 127.917969 C 146.792969 137.207031 138.625 144.15625 128.917969 145.9375 C 126.550781 146.363281 126.863281 146.363281 89.074219 146.332031 L 52.675781 146.300781 L 52.5 145.769531 L 52.3125 145.238281 L 52.90625 144.519531 C 53.40625 143.917969 77.957031 113.78125 81.207031 109.792969 C 81.792969 109.074219 83.15625 107.40625 84.230469 106.082031 C 85.3125 104.75 88.542969 100.78125 91.40625 97.261719 L 96.613281 90.84375 L 111.09375 90.84375 C 119.90625 90.84375 125.957031 90.875 126.5625 90.9375 Z M 50.3125 150.050781 C 50.667969 150.261719 50.84375 150.261719 59.40625 150.3125 L 68.136719 150.363281 L 66.957031 151.613281 C 66.324219 152.300781 63.636719 155.15625 61 157.96875 C 58.355469 160.769531 55.050781 164.292969 53.65625 165.78125 C 52.261719 167.269531 50.96875 168.644531 50.792969 168.832031 C 50.5 169.136719 50 169.324219 45.9375 170.636719 C 43.449219 171.4375 38.363281 173.082031 34.636719 174.292969 C 26.34375 176.96875 26.644531 176.875 26.6875 176.761719 C 26.71875 176.675781 28.519531 174.457031 43.113281 156.53125 L 49.28125 148.957031 L 49.613281 149.394531 C 49.800781 149.636719 50.113281 149.925781 50.3125 150.050781 Z M 50.3125 150.050781 "/>
<path style=" stroke:none;fill-rule:nonzero;fill:rgb(0%,0%,0%);fill-opacity:1;" d="M 137.355469 35.949219 C 135.605469 36.355469 135.300781 38.800781 136.894531 39.574219 C 137.300781 39.769531 137.542969 39.792969 138.988281 39.792969 C 140.6875 39.792969 141.136719 39.707031 141.59375 39.292969 C 142.113281 38.824219 142.332031 37.800781 142.074219 37.113281 C 141.894531 36.636719 141.355469 36.15625 140.792969 35.988281 C 140.207031 35.8125 138.03125 35.792969 137.355469 35.949219 Z M 137.355469 35.949219 "/>
<path style=" stroke:none;fill-rule:nonzero;fill:rgb(0%,0%,0%);fill-opacity:1;" d="M 124.21875 102.144531 C 123.425781 102.582031 123.175781 103.082031 123.074219 104.46875 C 122.855469 107.363281 121.292969 109.988281 118.894531 111.519531 C 118.59375 111.707031 117.96875 112.03125 117.488281 112.230469 C 115.78125 112.925781 116.074219 112.917969 104.019531 112.917969 C 93.730469 112.917969 93.15625 112.925781 92.761719 113.113281 C 91.894531 113.5 91.425781 114.4375 91.65625 115.3125 C 91.824219 115.917969 92.175781 116.375 92.675781 116.625 C 93.050781 116.8125 93.519531 116.824219 103.59375 116.855469 C 114.824219 116.886719 115.6875 116.855469 117.417969 116.394531 C 122.917969 114.925781 126.894531 109.917969 127 104.324219 C 127.019531 103.332031 126.832031 102.84375 126.21875 102.355469 C 125.894531 102.09375 125.71875 102.03125 125.175781 102.011719 C 124.730469 101.988281 124.4375 102.03125 124.21875 102.144531 Z M 124.21875 102.144531 "/>
<path style=" stroke:none;fill-rule:nonzero;fill:rgb(0%,0%,0%);fill-opacity:1;" d="M 124.324219 121.75 C 123.78125 122 123.25 122.605469 123.1875 123.042969 C 123.15625 123.230469 123.082031 123.863281 123.019531 124.457031 C 122.59375 128.394531 119.894531 131.417969 115.96875 132.363281 C 115.34375 132.519531 113.957031 132.542969 104.050781 132.59375 L 92.855469 132.65625 L 92.46875 132.917969 C 91.34375 133.6875 91.34375 135.375 92.46875 136.144531 L 92.855469 136.40625 L 103.949219 136.4375 C 116.457031 136.46875 116.28125 136.480469 118.488281 135.707031 C 123.355469 134 126.886719 129.15625 127.011719 124.03125 C 127.03125 123.105469 127.011719 123.019531 126.71875 122.550781 C 126.1875 121.707031 125.15625 121.355469 124.324219 121.75 Z M 124.324219 121.75 "/>
</g>
</svg>
